<svg width="145" height="145" viewBox="0 0 145 145" fill="none" xmlns="http://www.w3.org/2000/svg">
<path d="M47.6968 125.286L60.386 139.812L90.7737 135.638L89.271 122.114L47.6968 125.286Z" fill="white"/>
<path d="M138.628 125.884H6.37207V38.0908C6.37207 35.8375 7.26719 33.6765 8.86052 32.0832C10.4538 30.4898 12.6149 29.5947 14.8682 29.5947H130.132C132.385 29.5947 134.546 30.4898 136.139 32.0832C137.733 33.6765 138.628 35.8375 138.628 38.0908V125.884Z" fill="#AEADB3"/>
<path d="M127.3 113.423V42.0557C127.3 41.43 126.793 40.9229 126.167 40.9229L18.833 40.9229C18.2074 40.9229 17.7002 41.43 17.7002 42.0557V113.423C17.7002 114.048 18.2074 114.556 18.833 114.556H126.167C126.793 114.556 127.3 114.048 127.3 113.423Z" fill="white"/>
<path d="M134.38 142.876H10.6201C8.36681 142.876 6.2058 141.981 4.61247 140.388C3.01915 138.794 2.12402 136.633 2.12402 134.38V125.884H55.5078L62.7597 133.136C63.5563 133.932 64.6369 134.38 65.7635 134.38H79.2365C80.3632 134.38 81.4437 133.932 82.2403 133.136L89.4922 125.884H142.876V134.38C142.876 136.633 141.981 138.794 140.388 140.388C138.794 141.981 136.633 142.876 134.38 142.876Z" fill="#8B8893"/>
<path d="M110.591 114.556H34.4092V41.1895L57.3486 18.25H106.343C107.469 18.25 108.55 18.6976 109.347 19.4942C110.143 20.2909 110.591 21.3714 110.591 22.498V114.556Z" fill="#F0F0F2"/>
<path d="M57.3486 30.9941H97.5635C98.0892 30.9941 98.5935 31.203 98.9653 31.5748C99.337 31.9466 99.5459 32.4508 99.5459 32.9766V39.207C99.5459 39.7328 99.337 40.237 98.9653 40.6088C98.5935 40.9806 98.0892 41.1895 97.5635 41.1895H57.3486V30.9941Z" fill="#DADADC"/>
<path d="M57.3486 18.2499V41.1893H34.4092L57.3486 18.2499Z" fill="#C8C5CC"/>
<path d="M98.3589 55.8469H47.1533C46.59 55.8469 46.0497 55.6231 45.6514 55.2248C45.2531 54.8264 45.0293 54.2862 45.0293 53.7229C45.0293 53.1595 45.2531 52.6193 45.6514 52.221C46.0497 51.8226 46.59 51.5988 47.1533 51.5988H98.3589C98.9222 51.5988 99.4625 51.8226 99.8608 52.221C100.259 52.6193 100.483 53.1595 100.483 53.7229C100.483 54.2862 100.259 54.8264 99.8608 55.2248C99.4625 55.6231 98.9222 55.8469 98.3589 55.8469ZM98.3589 68.591H47.1533C46.59 68.591 46.0497 68.3672 45.6514 67.9689C45.2531 67.5706 45.0293 67.0303 45.0293 66.467C45.0293 65.9037 45.2531 65.3634 45.6514 64.9651C46.0497 64.5668 46.59 64.343 47.1533 64.343H98.3589C98.9222 64.343 99.4625 64.5668 99.8608 64.9651C100.259 65.3634 100.483 65.9037 100.483 66.467C100.483 67.0303 100.259 67.5706 99.8608 67.9689C99.4625 68.3672 98.9222 68.591 98.3589 68.591ZM77.4435 81.3352H47.1533C46.59 81.3352 46.0497 81.1114 45.6514 80.7131C45.2531 80.3147 45.0293 79.7745 45.0293 79.2111C45.0293 78.6478 45.2531 78.1076 45.6514 77.7092C46.0497 77.3109 46.59 77.0871 47.1533 77.0871H77.4435C78.0068 77.0871 78.5471 77.3109 78.9454 77.7092C79.3437 78.1076 79.5675 78.6478 79.5675 79.2111C79.5675 79.7745 79.3437 80.3147 78.9454 80.7131C78.5471 81.1114 78.0068 81.3352 77.4435 81.3352ZM75.5913 94.0793H47.1533C46.59 94.0793 46.0497 93.8555 45.6514 93.4572C45.2531 93.0589 45.0293 92.5186 45.0293 91.9553C45.0293 91.392 45.2531 90.8517 45.6514 90.4534C46.0497 90.055 46.59 89.8313 47.1533 89.8313H75.5913C76.1546 89.8313 76.6949 90.055 77.0932 90.4534C77.4916 90.8517 77.7153 91.392 77.7153 91.9553C77.7153 92.5186 77.4916 93.0589 77.0932 93.4572C76.6949 93.8555 76.1546 94.0793 75.5913 94.0793Z" fill="#DADADC"/>
<path d="M98.3589 81.2384H85.9396C85.3762 81.2384 84.836 81.0146 84.4377 80.6163C84.0393 80.2179 83.8156 79.6777 83.8156 79.1143C83.8156 78.551 84.0393 78.0108 84.4377 77.6124C84.836 77.2141 85.3762 76.9903 85.9396 76.9903H98.3589C98.9222 76.9903 99.4625 77.2141 99.8608 77.6124C100.259 78.0108 100.483 78.551 100.483 79.1143C100.483 79.6777 100.259 80.2179 99.8608 80.6163C99.4625 81.0146 98.9222 81.2384 98.3589 81.2384ZM98.3589 88.0126H85.9396C85.3762 88.0126 84.836 87.7888 84.4377 87.3905C84.0393 86.9921 83.8156 86.4519 83.8156 85.8885C83.8156 85.3252 84.0393 84.785 84.4377 84.3866C84.836 83.9883 85.3762 83.7645 85.9396 83.7645H98.3589C98.9222 83.7645 99.4625 83.9883 99.8608 84.3866C100.259 84.785 100.483 85.3252 100.483 85.8885C100.483 86.4519 100.259 86.9921 99.8608 87.3905C99.4625 87.7888 98.9222 88.0126 98.3589 88.0126Z" fill="#24B378"/>
<path d="M94.9721 104.243C94.6849 104.243 94.4006 104.185 94.1365 104.072C93.8724 103.96 93.634 103.794 93.4359 103.586L84.4037 94.1299C84.1164 93.8291 83.9237 93.4506 83.8496 93.0413C83.7755 92.632 83.8232 92.21 83.9867 91.8276C84.1503 91.4451 84.4225 91.1191 84.7697 90.89C85.1168 90.6609 85.5236 90.5387 85.9396 90.5387H88.1976C89.4309 90.5387 90.6137 90.0488 91.4858 89.1767C92.3578 88.3046 92.8478 87.1219 92.8478 85.8885C92.8478 84.6552 92.3578 83.4724 91.4858 82.6004C90.6137 81.7283 89.4309 81.2384 88.1976 81.2384H85.9396C85.3762 81.2384 84.836 81.0146 84.4377 80.6163C84.0393 80.2179 83.8156 79.6777 83.8156 79.1143C83.8156 78.551 84.0393 78.0108 84.4377 77.6124C84.836 77.2141 85.3762 76.9903 85.9396 76.9903H88.1976C90.3482 76.9905 92.426 77.7694 94.0467 79.1831C95.6673 80.5968 96.7212 82.5496 97.0133 84.6803C97.3055 86.811 96.8161 88.9753 95.6358 90.7731C94.4554 92.5708 92.664 93.8803 90.5928 94.4593L96.5077 100.652C96.795 100.953 96.9877 101.331 97.0618 101.74C97.136 102.15 97.0884 102.572 96.9248 102.954C96.7613 103.337 96.4891 103.663 96.1419 103.892C95.7948 104.121 95.388 104.243 94.9721 104.243H94.9721Z" fill="#24B378"/>
<path d="M124.158 129.694C134.496 129.694 142.876 121.314 142.876 110.976C142.876 100.639 134.496 92.2588 124.158 92.2588C113.821 92.2588 105.441 100.639 105.441 110.976C105.441 121.314 113.821 129.694 124.158 129.694Z" fill="white"/>
<path d="M124.158 92.2588C122.999 92.26 121.842 92.3683 120.703 92.5825C124.993 93.3878 128.866 95.667 131.653 99.0258C134.44 102.385 135.965 106.612 135.965 110.976C135.965 115.341 134.44 119.568 131.653 122.927C128.866 126.286 124.993 128.565 120.703 129.37C123.262 129.851 125.894 129.793 128.43 129.198C130.965 128.604 133.349 127.487 135.428 125.919C137.508 124.351 139.237 122.367 140.505 120.092C141.774 117.818 142.554 115.304 142.795 112.711C143.037 110.118 142.734 107.503 141.908 105.033C141.081 102.564 139.748 100.294 137.994 98.3689C136.239 96.4439 134.103 94.9062 131.721 93.8541C129.338 92.802 126.763 92.2587 124.158 92.2588Z" fill="#E1E1E3"/>
<path d="M124.158 131.818C120.036 131.818 116.007 130.595 112.58 128.305C109.152 126.015 106.481 122.76 104.904 118.952C103.326 115.144 102.913 110.953 103.718 106.91C104.522 102.867 106.507 99.1539 109.422 96.2392C112.336 93.3245 116.05 91.3395 120.093 90.5354C124.135 89.7312 128.326 90.144 132.134 91.7214C135.943 93.2988 139.198 95.9701 141.488 99.3975C143.778 102.825 145 106.854 145 110.976C144.994 116.502 142.796 121.799 138.889 125.707C134.982 129.614 129.684 131.812 124.158 131.818Z" fill="#24B378"/>
<path d="M124.158 90.1349C122.731 90.1346 121.308 90.2808 119.91 90.5713C124.6 91.5479 128.81 94.1099 131.832 97.8262C134.854 101.542 136.504 106.186 136.504 110.976C136.504 115.766 134.854 120.41 131.832 124.127C128.81 127.843 124.6 130.405 119.91 131.381C122.766 131.976 125.715 131.964 128.566 131.347C131.417 130.73 134.107 129.522 136.462 127.8C138.816 126.078 140.783 123.881 142.235 121.351C143.687 118.82 144.591 116.014 144.89 113.112C145.189 110.21 144.876 107.278 143.97 104.505C143.064 101.732 141.586 99.1806 139.632 97.0148C137.678 94.8491 135.291 93.1176 132.626 91.9325C129.96 90.7474 127.075 90.135 124.158 90.1349V90.1349Z" fill="#19AC66"/>
<path d="M120.936 118.397C120.657 118.398 120.381 118.343 120.123 118.236C119.866 118.129 119.631 117.973 119.434 117.775L115.285 113.626C115.088 113.429 114.931 113.194 114.824 112.937C114.718 112.679 114.663 112.403 114.663 112.124C114.663 111.845 114.718 111.569 114.824 111.311C114.931 111.053 115.088 110.819 115.285 110.622C115.482 110.425 115.716 110.268 115.974 110.161C116.232 110.055 116.508 110 116.787 110C117.066 110 117.342 110.055 117.6 110.161C117.857 110.268 118.091 110.425 118.289 110.622L120.936 113.269L130.028 104.178C130.225 103.98 130.46 103.824 130.717 103.717C130.975 103.61 131.251 103.555 131.53 103.555C131.809 103.555 132.085 103.61 132.343 103.717C132.601 103.824 132.835 103.98 133.032 104.178C133.229 104.375 133.386 104.609 133.493 104.867C133.599 105.125 133.654 105.401 133.654 105.68C133.654 105.959 133.599 106.235 133.492 106.493C133.386 106.75 133.229 106.984 133.032 107.182L122.438 117.775C122.241 117.973 122.007 118.129 121.749 118.236C121.492 118.343 121.215 118.398 120.936 118.397Z" fill="white"/>
</svg>
