<svg width="211" height="68" viewBox="0 0 211 68" fill="none" xmlns="http://www.w3.org/2000/svg">
<path fill-rule="evenodd" clip-rule="evenodd" d="M0 29.3004C0.762834 29.6056 2.33427 31.4522 2.51735 36.3966C2.53189 36.7892 2.5455 37.2555 2.56095 37.7846C2.78868 45.5857 3.41486 67.0364 13.2733 67.0364C21.219 67.0364 73.5197 67.4439 102.983 67.6823V67.7231C103.797 67.7165 104.637 67.7097 105.501 67.7027C106.364 67.7097 107.203 67.7165 108.017 67.7231V67.6823C137.48 67.4439 189.781 67.0364 197.727 67.0364C207.585 67.0364 208.211 45.5857 208.439 37.7846C208.455 37.2555 208.468 36.7892 208.483 36.3966C208.666 31.4522 210.237 29.6056 211 29.3004C197.956 29.7582 193.15 34.3364 192.692 37.0833C192.318 39.326 193.47 39.7377 194.03 39.9378C194.156 39.9828 194.252 40.0171 194.294 40.0592C186.422 43.9048 173.316 44.561 167.747 44.4084L108.017 44.4084H43.2527C37.684 44.561 24.5785 43.9048 16.7061 40.0591C16.7481 40.0171 16.8441 39.9828 16.97 39.9378C17.5299 39.7377 18.6817 39.326 18.308 37.0833C17.8503 34.3364 13.0445 29.7582 0 29.3004Z" fill="white"/>
<path fill-rule="evenodd" clip-rule="evenodd" d="M37.9061 5.95164H39.1335L173.697 5.49381L176.404 5.49382C176.121 4.83204 175.633 4.31147 175.029 3.89088C174.047 3.20647 172.834 2.85387 172.012 2.74691H42.5663C40.9479 2.74691 39.7572 3.49153 38.8776 4.50545C38.4811 4.96253 38.1588 5.46406 37.9061 5.95164ZM37.7604 8.69855H34.2035L34.5917 7.01626C34.862 5.84457 35.5566 4.1425 36.8034 2.7052C38.075 1.23926 39.9737 0 42.5663 0H172.174L172.253 0.00905256C173.414 0.143029 175.132 0.614174 176.599 1.63727C178.108 2.68915 179.419 4.38665 179.419 6.86728V8.24073H175.071V20.132C175.806 20.4814 176.632 21.001 177.366 21.7056C178.464 22.7601 179.419 24.2988 179.419 26.3246V27.698H175.071V49.9022H172.324V27.698H86.9632V51.5046H84.217V41.6615H75.063V51.5046H72.3168V41.6615H66.8244V51.5046H64.0782V41.6615H58.3569V51.5046H55.6107V41.6615H54.0088V51.5046H51.2626V41.6615H45.0836V51.2757H42.3374V41.6615H32.9546V51.2757H30.2083V27.698H24.9829L25.1852 26.1469C25.3236 25.0853 25.794 23.5304 26.7962 22.2054C27.8316 20.8363 29.4675 19.6862 31.8103 19.6862H37.7604V8.69855ZM40.5066 19.6862H45.0836V17.3971H40.5066V19.6862ZM40.5066 14.6502H45.0836V8.67832L40.5066 8.69389V14.6502ZM47.8298 8.66897V14.6502H52.4068V8.6534L47.8298 8.66897ZM55.153 8.64406V14.6502H61.1031V8.62381L55.153 8.64406ZM63.8493 8.61447V14.6502H68.6552V8.59812L63.8493 8.61447ZM71.4014 8.58878V14.6502H76.8938V8.57009L71.4014 8.58878ZM79.64 8.56075V14.6502H84.9036V8.54284L79.64 8.56075ZM87.6498 8.5335V14.6502H100.008V8.49145L87.6498 8.5335ZM102.754 8.48211V19.6862H172.324V8.24541L102.754 8.48211ZM173.469 22.4331H31.8103C30.4915 22.4331 29.61 23.038 28.9863 23.8626C28.7273 24.2051 28.519 24.58 28.3562 24.9511H176.381C176.167 24.4737 175.847 24.0546 175.464 23.6871C174.809 23.0577 174.023 22.6394 173.469 22.4331ZM100.008 19.6862V17.3971H87.6498V19.6862H100.008ZM84.9036 19.6862V17.3971H79.64V19.6862H84.9036ZM76.8938 19.6862V17.3971H71.4014V19.6862H76.8938ZM68.6552 19.6862V17.3971H63.8493V19.6862H68.6552ZM61.1031 19.6862V17.3971H55.153V19.6862H61.1031ZM52.4068 19.6862V17.3971H47.8298V19.6862H52.4068ZM32.9546 27.698V38.9146H42.3374V27.698H32.9546ZM45.0836 27.698V38.9146H51.2626V27.698H45.0836ZM54.0088 27.698V38.9146H55.6107V27.698H54.0088ZM58.3569 27.698V38.9146H64.0782V27.698H58.3569ZM66.8244 27.698V38.9146H72.3168V27.698H66.8244ZM75.063 27.698V38.9146H84.217V27.698H75.063Z" fill="white"/>
<path d="M101.61 38.2256C101.61 33.2963 105.606 29.3004 110.535 29.3004C115.464 29.3004 119.46 33.2963 119.46 38.2256V47.6132H101.61V38.2256Z" fill="white"/>
<rect x="110.764" y="7.32509" width="18.308" height="12.8189" fill="white"/>
<rect x="143.26" y="7.32509" width="8.23861" height="5.49382" fill="white"/>
<rect x="147.38" y="30.6738" width="8.23861" height="16.4815" fill="white"/>
</svg>
