<svg width="117" height="106" viewBox="0 0 117 106" fill="none" xmlns="http://www.w3.org/2000/svg">
<path d="M85.9787 11.1466H96.617C101.298 11.1466 105.128 14.8126 105.128 19.2933V80.3931C105.128 84.8737 101.298 88.5397 96.617 88.5397H11.5106C6.82979 88.5397 3 84.8737 3 80.3931V19.2933C3 14.8126 6.82979 11.1466 11.5106 11.1466H22.1489" fill="white"/>
<path d="M96.617 11.1466H85.9787H22.1489H11.5106C6.82979 11.1466 3 14.8126 3 19.2933V29.4766H105.128V19.2933C105.128 14.8126 101.298 11.1466 96.617 11.1466Z" fill="white"/>
<path d="M60.4469 11.1466H73.2129" stroke="#E49076" stroke-width="5" stroke-miterlimit="10" stroke-linecap="round" stroke-linejoin="round"/>
<path d="M34.9148 11.1466H47.6808" stroke="#E49076" stroke-width="5" stroke-miterlimit="10" stroke-linecap="round" stroke-linejoin="round"/>
<path d="M60.4468 88.5397H11.5106C6.82979 88.5397 3 84.8737 3 80.3931V19.2933C3 14.8126 6.82979 11.1466 11.5106 11.1466H22.1489" stroke="#E49076" stroke-width="5" stroke-miterlimit="10" stroke-linecap="round" stroke-linejoin="round"/>
<path d="M85.9788 11.1466H96.6171C101.298 11.1466 105.128 14.8126 105.128 19.2933V53.9165" stroke="#E49076" stroke-width="5" stroke-miterlimit="10" stroke-linecap="round" stroke-linejoin="round"/>
<path d="M47.6808 48.2137C48.8558 48.2137 49.8084 47.3019 49.8084 46.1771C49.8084 45.0523 48.8558 44.1404 47.6808 44.1404C46.5057 44.1404 45.5531 45.0523 45.5531 46.1771C45.5531 47.3019 46.5057 48.2137 47.6808 48.2137Z" stroke="#E49076" stroke-width="5" stroke-miterlimit="10" stroke-linecap="round" stroke-linejoin="round"/>
<path d="M62.5746 48.2137C63.7496 48.2137 64.7022 47.3019 64.7022 46.1771C64.7022 45.0523 63.7496 44.1404 62.5746 44.1404C61.3995 44.1404 60.4469 45.0523 60.4469 46.1771C60.4469 47.3019 61.3995 48.2137 62.5746 48.2137Z" stroke="#E49076" stroke-width="5" stroke-miterlimit="10" stroke-linecap="round" stroke-linejoin="round"/>
<path d="M77.4682 48.2137C78.6433 48.2137 79.5959 47.3019 79.5959 46.1771C79.5959 45.0523 78.6433 44.1404 77.4682 44.1404C76.2932 44.1404 75.3406 45.0523 75.3406 46.1771C75.3406 47.3019 76.2932 48.2137 77.4682 48.2137Z" stroke="#E49076" stroke-width="5" stroke-miterlimit="10" stroke-linecap="round" stroke-linejoin="round"/>
<path d="M92.3617 48.2137C93.5367 48.2137 94.4893 47.3019 94.4893 46.1771C94.4893 45.0523 93.5367 44.1404 92.3617 44.1404C91.1866 44.1404 90.234 45.0523 90.234 46.1771C90.234 47.3019 91.1866 48.2137 92.3617 48.2137Z" stroke="#E49076" stroke-width="5" stroke-miterlimit="10" stroke-linecap="round" stroke-linejoin="round"/>
<path d="M47.6808 62.4704C48.8558 62.4704 49.8084 61.5585 49.8084 60.4337C49.8084 59.3089 48.8558 58.397 47.6808 58.397C46.5057 58.397 45.5531 59.3089 45.5531 60.4337C45.5531 61.5585 46.5057 62.4704 47.6808 62.4704Z" stroke="#E49076" stroke-width="5" stroke-miterlimit="10" stroke-linecap="round" stroke-linejoin="round"/>
<path d="M32.7871 62.4704C33.9622 62.4704 34.9147 61.5585 34.9147 60.4337C34.9147 59.3089 33.9622 58.397 32.7871 58.397C31.612 58.397 30.6594 59.3089 30.6594 60.4337C30.6594 61.5585 31.612 62.4704 32.7871 62.4704Z" stroke="#E49076" stroke-width="5" stroke-miterlimit="10" stroke-linecap="round" stroke-linejoin="round"/>
<path d="M17.8934 62.4704C19.0685 62.4704 20.0211 61.5585 20.0211 60.4337C20.0211 59.3089 19.0685 58.397 17.8934 58.397C16.7183 58.397 15.7657 59.3089 15.7657 60.4337C15.7657 61.5585 16.7183 62.4704 17.8934 62.4704Z" stroke="#E49076" stroke-width="5" stroke-miterlimit="10" stroke-linecap="round" stroke-linejoin="round"/>
<path d="M62.5746 62.4704C63.7496 62.4704 64.7022 61.5585 64.7022 60.4337C64.7022 59.3089 63.7496 58.397 62.5746 58.397C61.3995 58.397 60.4469 59.3089 60.4469 60.4337C60.4469 61.5585 61.3995 62.4704 62.5746 62.4704Z" stroke="#E49076" stroke-width="5" stroke-miterlimit="10" stroke-linecap="round" stroke-linejoin="round"/>
<path d="M47.6808 76.727C48.8558 76.727 49.8084 75.8151 49.8084 74.6903C49.8084 73.5655 48.8558 72.6537 47.6808 72.6537C46.5057 72.6537 45.5531 73.5655 45.5531 74.6903C45.5531 75.8151 46.5057 76.727 47.6808 76.727Z" stroke="#E49076" stroke-width="5" stroke-miterlimit="10" stroke-linecap="round" stroke-linejoin="round"/>
<path d="M32.7871 76.727C33.9622 76.727 34.9147 75.8151 34.9147 74.6903C34.9147 73.5655 33.9622 72.6537 32.7871 72.6537C31.612 72.6537 30.6594 73.5655 30.6594 74.6903C30.6594 75.8151 31.612 76.727 32.7871 76.727Z" stroke="#E49076" stroke-width="5" stroke-miterlimit="10" stroke-linecap="round" stroke-linejoin="round"/>
<path d="M17.8934 76.727C19.0685 76.727 20.0211 75.8151 20.0211 74.6903C20.0211 73.5655 19.0685 72.6537 17.8934 72.6537C16.7183 72.6537 15.7657 73.5655 15.7657 74.6903C15.7657 75.8151 16.7183 76.727 17.8934 76.727Z" stroke="#E49076" stroke-width="5" stroke-miterlimit="10" stroke-linecap="round" stroke-linejoin="round"/>
<path d="M54.0638 15.22V3" stroke="#E49076" stroke-width="5" stroke-miterlimit="10" stroke-linecap="round" stroke-linejoin="round"/>
<path d="M28.532 15.22V3" stroke="#E49076" stroke-width="5" stroke-miterlimit="10" stroke-linecap="round" stroke-linejoin="round"/>
<path d="M79.5959 15.22V3" stroke="#E49076" stroke-width="5" stroke-miterlimit="10" stroke-linecap="round" stroke-linejoin="round"/>
<path d="M3 29.4768H105.128" stroke="#E49076" stroke-width="5" stroke-miterlimit="10" stroke-linecap="round" stroke-linejoin="round"/>
<path d="M90.6599 103C103.703 103 114.277 92.8785 114.277 80.3931C114.277 67.9076 103.703 57.7862 90.6599 57.7862C77.6166 57.7862 67.0428 67.9076 67.0428 80.3931C67.0428 92.8785 77.6166 103 90.6599 103Z" fill="white"/>
<path d="M78.3188 61.0446L90.2337 79.9856L112.787 72.6536C112.787 72.6536 108.744 62.4703 98.7444 59.2116C88.7444 55.7493 81.0848 59.2116 78.3188 61.0446Z" fill="white"/>
<path d="M90.6599 103C103.703 103 114.277 92.8785 114.277 80.3931C114.277 67.9076 103.703 57.7862 90.6599 57.7862C77.6166 57.7862 67.0428 67.9076 67.0428 80.3931C67.0428 92.8785 77.6166 103 90.6599 103Z" stroke="#E49076" stroke-width="5" stroke-miterlimit="10" stroke-linecap="round" stroke-linejoin="round"/>
<path d="M90.66 80.393L101.511 76.727" stroke="#E49076" stroke-width="5" stroke-miterlimit="10" stroke-linecap="round" stroke-linejoin="round"/>
<path d="M90.6597 80.3931L81.9363 66.9511" stroke="#E49076" stroke-width="5" stroke-miterlimit="10" stroke-linecap="round" stroke-linejoin="round"/>
</svg>
