<svg width="145" height="146" viewBox="0 0 145 146" fill="none" xmlns="http://www.w3.org/2000/svg">
<path d="M109.919 57.5907V54.2417H114.597V44.8869H121.613V30.8546H108.275L60.8064 0L13.3377 30.8546H0V44.8869H7.01613V54.2417H11.6935V91.661H7.01613V101.016H0V115.048H58.435C64.3285 132.687 80.9685 145.451 100.565 145.451C125.067 145.451 145 125.519 145 101.016C145 79.7243 129.941 61.901 109.919 57.5907ZM105.242 56.8306C103.703 56.6693 102.145 56.5804 100.565 56.5804V54.2417H105.242V56.8306ZM56.3793 96.3385C56.2179 97.8773 56.129 99.4349 56.129 101.016H39.7581V96.3385H56.3793ZM57.1394 91.661H53.7903V86.9836H49.1129V91.661H44.4355V54.2417H49.1129V82.3062H53.7903V54.2417H58.4677V44.8869H63.1452V54.2417H67.8226V71.0804C62.6002 76.7869 58.8256 83.831 57.1394 91.661ZM39.7581 49.5643V44.8869H53.7903V49.5643H39.7581ZM67.8226 49.5643V44.8869H81.8548V49.5643H67.8226ZM72.5 54.2417H77.1774V63.3042C75.552 64.3145 73.9757 65.3973 72.5 66.6018V54.2417ZM81.8548 54.2417H86.5323V44.8869H91.2097V54.2417H95.8871V56.8306C90.915 57.3545 86.2048 58.7367 81.8548 60.7667V54.2417ZM109.919 49.5643H95.8871V44.8869H109.919V49.5643ZM60.8064 12.1449C64.6747 12.1449 67.8226 15.2928 67.8226 19.161C67.8226 23.0293 64.6747 26.1772 60.8064 26.1772C56.9382 26.1772 53.7903 23.0293 53.7903 19.161C53.7903 15.2928 56.9382 12.1449 60.8064 12.1449ZM64.9179 8.25331C63.6339 7.76685 62.2588 7.4675 60.8064 7.4675C59.3541 7.4675 57.979 7.76685 56.695 8.25331L60.8064 5.58016L64.9179 8.25331ZM52.4432 11.0153C50.3898 13.1248 49.1129 15.9921 49.1129 19.161C49.1129 25.6089 54.3586 30.8546 60.8064 30.8546C67.2543 30.8546 72.5 25.6089 72.5 19.161C72.5 15.9921 71.2231 13.1248 69.1697 11.0153L99.6898 30.8546H60.8064H21.9231L52.4432 11.0153ZM4.67742 40.2094V35.532H6.14145H115.469H116.935V40.2094H114.597H91.2097H86.5323H63.1452H58.4677H35.0806H30.4032H7.01613H4.67742ZM25.7258 44.8869V49.5643H11.6935V44.8869H25.7258ZM16.371 54.2417H21.0484V58.9191H25.7258V54.2417H30.4032V44.8869H35.0806V54.2417H39.7581V91.661H35.0806V101.016H30.4032V91.661H25.7258V63.5965H21.0484V91.661H16.371V54.2417ZM11.6935 96.3385H25.7258V101.016H11.6935V96.3385ZM4.67742 110.371V105.693H7.01613H30.4032H35.0806H56.3793C56.5453 107.281 56.8073 108.837 57.1394 110.371H4.67742ZM100.565 140.774C78.6414 140.774 60.8064 122.939 60.8064 101.016C60.8064 90.0707 65.2523 80.1476 72.4322 72.9514H72.5V72.8836C79.6962 65.7037 89.6194 61.2578 100.565 61.2578C122.488 61.2578 140.323 79.0928 140.323 101.016C140.323 122.939 122.488 140.774 100.565 140.774Z" fill="white"/>
<path d="M88.871 86.9836H74.8387V115.048H88.871V86.9836ZM84.1936 110.371H79.5162V91.661H84.1936V110.371Z" fill="white"/>
<path d="M107.581 82.3062H93.5483V115.048H107.581V82.3062ZM102.903 110.371H98.2258V86.9836H102.903V110.371Z" fill="white"/>
<path d="M112.258 115.048H126.29V77.6288H112.258V115.048ZM116.935 82.3062H121.613V110.371H116.935V82.3062Z" fill="white"/>
<path d="M100.565 131.419C93.4314 131.419 86.4902 128.886 81.0223 124.288L78.0123 127.869C84.3222 133.173 92.3299 136.096 100.565 136.096C108.799 136.096 116.807 133.173 123.119 127.869L120.109 124.288C114.639 128.886 107.698 131.419 100.565 131.419Z" fill="white"/>
</svg>
