<svg width="1077" height="247" viewBox="0 0 1077 247" fill="none" xmlns="http://www.w3.org/2000/svg">
<path fill-rule="evenodd" clip-rule="evenodd" d="M1071.2 79.9591C1069.11 80.792 1064.83 85.8311 1064.33 99.3242C1064.29 100.395 1064.25 101.668 1064.21 103.112C1063.59 124.401 1061.88 182.938 1034.97 182.938C1013.29 182.938 870.565 184.051 790.163 184.701V184.813C787.939 184.794 785.647 184.776 783.29 184.757C780.935 184.776 778.645 184.794 776.423 184.812V184.701C696.02 184.051 553.295 182.938 531.612 182.938C504.708 182.938 503 124.401 502.378 103.112C502.336 101.668 502.299 100.396 502.259 99.3242C501.76 85.8311 497.471 80.7921 495.39 79.9592C530.987 81.2085 544.102 93.7021 545.351 101.198C546.371 107.318 543.228 108.442 541.7 108.988C541.356 109.111 541.094 109.204 540.979 109.319C562.463 119.814 598.227 121.604 613.424 121.188L776.423 121.188H953.162C968.359 121.604 1004.12 119.814 1025.61 109.319C1025.49 109.204 1025.23 109.111 1024.89 108.988C1023.36 108.442 1020.21 107.318 1021.23 101.198C1022.48 93.7021 1035.6 81.2085 1071.2 79.9591Z" fill="#3E4059"/>
<path fill-rule="evenodd" clip-rule="evenodd" d="M598.833 16.2417H602.183L969.4 14.9923L976.786 14.9923C976.013 13.1864 974.681 11.7658 973.034 10.618C970.355 8.75027 967.045 7.78803 964.8 7.49616H611.55C607.134 7.49616 603.884 9.52818 601.484 12.2951C600.402 13.5425 599.523 14.9111 598.833 16.2417ZM598.435 23.7378H588.729L589.788 19.147C590.526 15.9495 592.421 11.3046 595.824 7.38232C599.294 3.38187 604.475 0 611.55 0H965.244L965.458 0.0247039C968.626 0.390317 973.314 1.67605 977.319 4.46803C981.437 7.33853 985.013 11.9709 985.013 18.7404V22.4885H973.147V54.9391C975.154 55.8926 977.409 57.3105 979.411 59.2332C982.408 62.1109 985.013 66.3099 985.013 71.8382V75.5863H973.147V136.18H965.653V75.5863H732.707V140.553H725.213V113.692H700.232V140.553H692.738V113.692H677.749V140.553H670.255V113.692H654.642V140.553H647.148V113.692H642.776V140.553H635.282V113.692H618.42V139.928H610.926V113.692H585.321V139.928H577.826V75.5863H563.566L564.118 71.3534C564.496 68.4562 565.78 64.2132 568.515 60.5971C571.34 56.8611 575.805 53.7225 582.198 53.7225H598.435V23.7378ZM605.93 53.7225H618.42V47.4757H605.93V53.7225ZM605.93 39.9795H618.42V23.6826L605.93 23.7251V39.9795ZM625.914 23.6571V39.9795H638.405V23.6146L625.914 23.6571ZM645.899 23.5891V39.9795H662.136V23.5339L645.899 23.5891ZM669.631 23.5084V39.9795H682.746V23.4638L669.631 23.5084ZM690.24 23.4383V39.9795H705.228V23.3873L690.24 23.4383ZM712.722 23.3618V39.9795H727.086V23.3129L712.722 23.3618ZM734.581 23.2874V39.9795H768.305V23.1727L734.581 23.2874ZM775.799 23.1472V53.7225H965.653V22.5013L775.799 23.1472ZM968.776 61.2186H582.198C578.599 61.2186 576.193 62.8693 574.491 65.1197C573.785 66.0543 573.216 67.0775 572.772 68.0901H976.723C976.138 66.7873 975.265 65.6436 974.221 64.6408C972.432 62.9231 970.289 61.7815 968.776 61.2186ZM768.305 53.7225V47.4757H734.581V53.7225H768.305ZM727.086 53.7225V47.4757H712.722V53.7225H727.086ZM705.228 53.7225V47.4757H690.24V53.7225H705.228ZM682.746 53.7225V47.4757H669.631V53.7225H682.746ZM662.136 53.7225V47.4757H645.899V53.7225H662.136ZM638.405 53.7225V47.4757H625.914V53.7225H638.405ZM585.321 75.5863V106.196H610.926V75.5863H585.321ZM618.42 75.5863V106.196H635.282V75.5863H618.42ZM642.776 75.5863V106.196H647.148V75.5863H642.776ZM654.642 75.5863V106.196H670.255V75.5863H654.642ZM677.749 75.5863V106.196H692.738V75.5863H677.749ZM700.232 75.5863V106.196H725.213V75.5863H700.232Z" fill="#3E4059"/>
<path d="M772.676 94.9591C772.676 86.6748 779.392 79.9591 787.676 79.9591H806.389C814.673 79.9591 821.389 86.6748 821.389 94.9591V129.934H772.676V94.9591Z" fill="#3E4059"/>
<rect x="797.657" y="19.9898" width="49.9615" height="34.9821" fill="#3E4059"/>
<rect x="886.338" y="19.9898" width="22.4827" height="14.9923" fill="#3E4059"/>
<rect x="897.58" y="83.7071" width="22.4827" height="44.977" fill="#3E4059"/>
<path d="M980.606 157.723C1028.8 157.723 1028.8 176.571 1077 176.571V214.265C1028.8 214.265 1028.8 195.418 980.606 195.418C932.408 195.418 932.408 214.265 884.211 214.265C836.014 214.265 836.014 195.418 787.817 195.418C739.619 195.418 739.619 214.265 691.422 214.265C643.225 214.265 643.225 195.418 595.028 195.418C546.83 195.418 546.83 214.265 498.633 214.265C450.436 214.265 450.436 195.418 402.239 195.418C354.041 195.418 354.041 214.265 305.844 214.265C257.647 214.265 257.647 195.418 209.45 195.418C204.025 195.402 198.62 195.676 193.384 196.232V158.538C198.62 157.982 204.025 157.708 209.45 157.723C257.647 157.723 257.647 176.571 305.844 176.571C354.041 176.571 354.041 157.723 402.239 157.723C450.436 157.723 450.436 176.571 498.633 176.571C546.83 176.571 546.83 157.723 595.028 157.723C643.225 157.723 643.225 176.571 691.422 176.571C739.619 176.571 739.619 157.723 787.817 157.723C836.014 157.723 836.014 176.571 884.211 176.571C932.408 176.571 932.408 157.723 980.606 157.723Z" fill="#D27F65"/>
<path d="M980.552 190.458C1028.78 190.458 1028.78 209.306 1077 209.306V247C1028.78 247 1028.78 228.153 980.552 228.153C932.328 228.153 932.328 247 884.104 247C835.881 247 835.881 228.153 787.657 228.153C739.433 228.153 739.433 247 691.209 247C642.985 247 642.985 228.153 594.761 228.153C546.537 228.153 546.537 247 498.313 247C450.09 247 450.09 228.153 401.866 228.153C353.642 228.153 353.642 247 305.418 247C257.194 247 257.194 228.153 208.97 228.153C160.746 228.153 160.746 247 112.522 247C64.2985 247 64.2985 228.153 16.0746 228.153C10.6466 228.137 5.23863 228.411 0 228.967V191.273C5.23863 190.717 10.6466 190.443 16.0746 190.458C64.2985 190.458 64.2985 209.306 112.522 209.306C160.746 209.306 160.746 190.458 208.97 190.458C257.194 190.458 257.194 209.306 305.418 209.306C353.642 209.306 353.642 190.458 401.866 190.458C450.09 190.458 450.09 209.306 498.313 209.306C546.537 209.306 546.537 190.458 594.761 190.458C642.985 190.458 642.985 209.306 691.209 209.306C739.433 209.306 739.433 190.458 787.657 190.458C835.881 190.458 835.881 209.306 884.104 209.306C932.328 209.306 932.328 190.458 980.552 190.458Z" fill="#F8A388"/>
</svg>
