<svg width="21" height="18" viewBox="0 0 21 18" fill="none" xmlns="http://www.w3.org/2000/svg">
<path d="M12.3107 14.6065L15.3122 17.6058C15.3727 17.6663 15.4399 17.7222 15.5093 17.7693C15.5205 17.776 15.5317 17.7827 15.5429 17.7894C15.5742 17.8096 15.6056 17.8298 15.637 17.8454C15.675 17.8656 15.7154 17.8835 15.7534 17.9014C15.7579 17.9014 15.7624 17.9037 15.7669 17.9059C15.805 17.9194 15.843 17.9328 15.8789 17.944C15.9214 17.9574 15.964 17.9664 16.0066 17.9754C16.0894 17.991 16.1768 18 16.2619 18C16.3918 18 16.5195 17.9821 16.6449 17.944C16.683 17.9328 16.7211 17.9194 16.7569 17.9059C16.7614 17.9037 16.7659 17.9014 16.7704 17.9014C16.8107 17.8835 16.8488 17.8656 16.8868 17.8454C16.9182 17.8298 16.9496 17.8118 16.9809 17.7894C17.0616 17.7402 17.14 17.6797 17.2116 17.6058H17.2139L20.2131 14.6065C20.7395 14.0801 20.7395 13.229 20.2131 12.7048C19.689 12.1807 18.8378 12.1807 18.3137 12.7048L17.6059 13.4126V1.34395C17.6059 0.602539 17.0056 0 16.2619 0C15.5205 0 14.918 0.602539 14.918 1.34395V13.4104L14.2124 12.7048C13.686 12.1807 12.8371 12.1807 12.3107 12.7048C11.7865 13.229 11.7865 14.0801 12.3107 14.6065Z" fill="white"/>
<path d="M1.34407 2.6879H9.35649C10.0986 2.6879 10.7004 2.08604 10.7004 1.34395C10.7004 0.601867 10.0986 0 9.35649 0H1.34407C0.601983 0 0.000116348 0.601867 0.000116348 1.34395C0.000116348 2.08604 0.601983 2.6879 1.34407 2.6879Z" fill="white"/>
<path d="M2.94651 7.73851H9.35649C10.0986 7.73851 10.7004 7.13664 10.7004 6.39456C10.7004 5.65247 10.0986 5.05061 9.35649 5.05061H2.94651C2.20442 5.05061 1.60255 5.65247 1.60255 6.39456C1.60255 7.13664 2.20442 7.73851 2.94651 7.73851Z" fill="white"/>
<path d="M4.54917 12.7887H9.35649C10.0986 12.7887 10.7004 12.1868 10.7004 11.4447C10.7004 10.7026 10.0986 10.1008 9.35649 10.1008H4.54895C3.80686 10.1008 3.20499 10.7026 3.20499 11.4447C3.20499 12.1868 3.80686 12.7887 4.54917 12.7887Z" fill="white"/>
<path d="M6.15161 17.8393H9.35649C10.0986 17.8393 10.7004 17.2374 10.7004 16.4953C10.7004 15.7532 10.0986 15.1514 9.35649 15.1514H6.15138C5.4093 15.1514 4.80743 15.7532 4.80743 16.4953C4.80743 17.2374 5.4093 17.8393 6.15161 17.8393Z" fill="white"/>
</svg>
