<svg width="160" height="100" viewBox="0 0 160 100" fill="none" xmlns="http://www.w3.org/2000/svg">
<path d="M79.7361 57.4191C90.2528 57.4191 97.8638 42.9941 97.8638 33.2487C97.8638 23.2465 89.7128 15.121 79.7361 15.121C69.7337 15.121 61.6084 23.2464 61.6084 33.2487C61.6084 42.9941 69.2194 57.4191 79.7361 57.4191ZM79.7361 20.2636C86.8844 20.2636 92.7212 26.1006 92.7212 33.2487C92.7212 41.2199 86.1644 52.2765 79.7361 52.2765C73.2821 52.2765 66.751 41.2199 66.751 33.2487C66.751 26.1006 72.5622 20.2636 79.7361 20.2636Z" fill="white"/>
<path d="M159.421 58.9876C159.421 50.1423 152.247 42.9684 143.376 42.9684H138.182L129.491 59.5534C129.44 59.6819 129.286 59.6819 129.234 59.5534L120.543 42.9684H115.349C106.504 42.9684 99.3555 50.1167 99.3297 58.9619C97.5813 58.3962 95.7043 58.0877 93.75 58.0877H86.9875L79.7106 71.9471L72.4595 58.0877H65.697C63.7685 58.0877 61.8915 58.3963 60.1173 58.9619C60.0915 50.1167 52.9176 42.9684 44.0723 42.9684H38.8782L30.1872 59.5534C30.1359 59.6819 29.9816 59.6819 29.9301 59.5534L21.2391 42.9684H16.045C7.17406 42.9684 0 50.1423 0 58.9876V79.7381H47.1064V100H112.366V79.7381H159.421V58.9876ZM107.224 94.8574H52.249V76.6782C52.249 69.1439 58.4857 63.2303 65.697 63.2303H69.3483C69.4815 63.4876 78.5563 81.0159 77.9879 79.9181L81.5876 79.841C81.7197 79.5832 90.6625 62.1301 90.0988 63.2303H93.75C101.125 63.2303 107.224 69.2808 107.224 76.6782V94.8574Z" fill="white"/>
<path d="M129.379 37.1641C137.969 37.1641 144.933 24.1448 144.933 15.5543V15.5542C144.933 6.96406 137.969 0 129.379 0C120.788 0 113.824 6.9639 113.824 15.5542V15.5543C113.824 24.1448 120.788 37.1641 129.379 37.1641Z" fill="white"/>
<path d="M30.0669 37.1641C38.6574 37.1641 45.6213 24.1448 45.6213 15.5543C45.6213 7.16264 38.7999 0 30.0669 0C21.4769 0 14.5126 6.96362 14.5126 15.5542C14.5125 24.1375 21.4743 37.1641 30.0669 37.1641Z" fill="white"/>
</svg>
